<svg xmlns="http://www.w3.org/2000/svg" viewBox="0 0 24 24"><defs><style>.cls-1{fill:none;}.cls-2,.cls-4{fill:#9a8056;}.cls-2{isolation:isolate;}.cls-3{fill:#373737;}</style></defs><title>computer</title><g id="Layer_2" data-name="Layer 2"><g id="Layer_1-2" data-name="Layer 1"><g id="Bounding_Boxes" data-name="Bounding Boxes"><path class="cls-1" d="M0,0H24V24H0Z"/></g><rect class="cls-2" x="18" y="13" width="5" height="7"/><path class="cls-3" d="M23,11H18a1,1,0,0,0-1,1v9a1,1,0,0,0,1,1h5a1,1,0,0,0,1-1V12A1,1,0,0,0,23,11Zm0,9H18V13h5Z"/><path class="cls-3" d="M2,4H20V9h2V4a2,2,0,0,0-2-2H2A2,2,0,0,0,0,4V16a2,2,0,0,0,2,2H9v2H7v2h8V20H13V18h2V16H2Z"/><polygon class="cls-4" points="11 6 10.03 9 7 9 9.47 10.76 8.53 13.67 11 11.87 13.47 13.67 12.53 10.76 15 9 11.97 9 11 6"/></g></g></svg>