<svg xmlns="http://www.w3.org/2000/svg" viewBox="0 0 24 24"><defs><style>.cls-1{fill:none;}.cls-2{fill:#9a8056;isolation:isolate;}.cls-3{fill:#373737;}</style></defs><title>eye</title><g id="Layer_2" data-name="Layer 2"><g id="Layer_1-2" data-name="Layer 1"><g id="Bounding_Boxes" data-name="Bounding Boxes"><path class="cls-1" d="M0,0H24V24H0Z"/></g><path class="cls-2" d="M12,6a9.77,9.77,0,0,0-8.82,5.5,9.82,9.82,0,0,0,17.64,0A9.77,9.77,0,0,0,12,6Zm0,10a4.5,4.5,0,1,1,4.5-4.5A4.51,4.51,0,0,1,12,16Z"/><path class="cls-3" d="M12,4A11.83,11.83,0,0,0,1,11.5a11.82,11.82,0,0,0,22,0A11.83,11.83,0,0,0,12,4Zm0,13a9.77,9.77,0,0,1-8.82-5.5,9.82,9.82,0,0,1,17.64,0A9.77,9.77,0,0,1,12,17Z"/><path class="cls-3" d="M12,7a4.5,4.5,0,1,0,4.5,4.5A4.51,4.51,0,0,0,12,7Zm0,7a2.5,2.5,0,1,1,2.5-2.5A2.5,2.5,0,0,1,12,14Z"/></g></g></svg>