<svg xmlns="http://www.w3.org/2000/svg" viewBox="0 0 24 24"><defs><style>.cls-1{fill:none;}.cls-2{fill:#9a8056;isolation:isolate;}.cls-3{fill:#373737;}</style></defs><title>radio</title><g id="Layer_2" data-name="Layer 2"><g id="Layer_1-2" data-name="Layer 1"><g id="Bounding_Boxes" data-name="Bounding Boxes"><path class="cls-1" d="M0,0H24V24H0Z"/></g><path class="cls-2" d="M20,13H4v7H20ZM8,19a2.5,2.5,0,1,1,2.5-2.5A2.5,2.5,0,0,1,8,19Z"/><path class="cls-3" d="M2,20a2,2,0,0,0,2,2H20a2,2,0,0,0,2-2V8a2,2,0,0,0-2-2H8.3l8.26-3.34L15.88,1,3.24,6.15A2,2,0,0,0,2,8ZM4,8H20v3H18V9H16v2H4Zm0,5H20v7H4Z"/><circle class="cls-3" cx="8" cy="16.48" r="2.5"/></g></g></svg>