<svg xmlns="http://www.w3.org/2000/svg" viewBox="0 0 24 24"><defs><style>.cls-1{fill:none;}.cls-2{fill:#9a8056;isolation:isolate;}.cls-3{fill:#373737;}</style></defs><title>song</title><g id="Layer_2" data-name="Layer 2"><g id="Layer_1-2" data-name="Layer 1"><g id="Bounding_Boxes" data-name="Bounding Boxes"><path class="cls-1" d="M0,0H24V24H0Z"/></g><path class="cls-2" d="M8,16H20V4H8Zm4.5-6a2.45,2.45,0,0,1,1.5.51V5h4V7H15v5.5A2.5,2.5,0,1,1,12.5,10Z"/><path class="cls-3" d="M20,2H8A2,2,0,0,0,6,4V16a2,2,0,0,0,2,2H20a2,2,0,0,0,2-2V4A2,2,0,0,0,20,2Zm0,14H8V4H20Z"/><path class="cls-3" d="M12.5,15A2.5,2.5,0,0,0,15,12.5V7h3V5H14v5.51A2.45,2.45,0,0,0,12.5,10a2.5,2.5,0,0,0,0,5Z"/><path class="cls-3" d="M2,6V20a2,2,0,0,0,2,2H18V20H4V6Z"/></g></g></svg>