<svg xmlns="http://www.w3.org/2000/svg" viewBox="0 0 24 24"><defs><style>.cls-1{fill:none;}.cls-2{fill:#9a8056;isolation:isolate;}.cls-3{fill:#373737;}</style></defs><title>tag</title><g id="Layer_2" data-name="Layer 2"><g id="Layer_1-2" data-name="Layer 1"><g id="Bounding_Boxes" data-name="Bounding Boxes"><path class="cls-1" d="M0,0H24V24H0Z"/></g><path class="cls-2" d="M11,4H4v7l9,9,7-7L11,4ZM6.5,8A1.5,1.5,0,1,1,8,6.5,1.5,1.5,0,0,1,6.5,8ZM13,11.7l.6-.6A2.05,2.05,0,0,1,16.5,14L13,17.5,9.5,14a2.08,2.08,0,0,1-.6-1.45,2.05,2.05,0,0,1,2-2.05,2,2,0,0,1,1.45.61Z"/><path class="cls-3" d="M21.41,11.58l-9-9A2,2,0,0,0,11,2H4A2,2,0,0,0,2,4v7a2,2,0,0,0,.59,1.42l9,9A2,2,0,0,0,13,22a2,2,0,0,0,1.41-.59l7-7A2,2,0,0,0,22,13,2,2,0,0,0,21.41,11.58ZM13,20,4,11V4h7l9,9Z"/><circle class="cls-3" cx="6.5" cy="6.5" r="1.5"/><path class="cls-3" d="M8.9,12.55A2.06,2.06,0,0,0,9.5,14L13,17.5,16.5,14a2.05,2.05,0,0,0-2.9-2.9l-.6.6-.6-.59A2,2,0,0,0,11,10.5,2.05,2.05,0,0,0,8.9,12.55Z"/></g></g></svg>